<svg version="1.1" xmlns="http://www.w3.org/2000/svg" xmlns:xlink="http://www.w3.org/1999/xlink" width="606.37890625" height="515"><defs/><g><text fill="#eeeeee" stroke="none" font-family="Arial" font-size="24px" font-style="normal" font-weight="normal" text-decoration="none" x="0" y="0">UNREGISTERED</text><text fill="#eeeeee" stroke="none" font-family="Arial" font-size="24px" font-style="normal" font-weight="normal" text-decoration="none" x="0" y="30">UNREGISTERED</text><text fill="#eeeeee" stroke="none" font-family="Arial" font-size="24px" font-style="normal" font-weight="normal" text-decoration="none" x="0" y="60">UNREGISTERED</text><text fill="#eeeeee" stroke="none" font-family="Arial" font-size="24px" font-style="normal" font-weight="normal" text-decoration="none" x="0" y="90">UNREGISTERED</text><text fill="#eeeeee" stroke="none" font-family="Arial" font-size="24px" font-style="normal" font-weight="normal" text-decoration="none" x="0" y="120">UNREGISTERED</text><text fill="#eeeeee" stroke="none" font-family="Arial" font-size="24px" font-style="normal" font-weight="normal" text-decoration="none" x="0" y="150">UNREGISTERED</text><text fill="#eeeeee" stroke="none" font-family="Arial" font-size="24px" font-style="normal" font-weight="normal" text-decoration="none" x="0" y="180">UNREGISTERED</text><text fill="#eeeeee" stroke="none" font-family="Arial" font-size="24px" font-style="normal" font-weight="normal" text-decoration="none" x="0" y="210">UNREGISTERED</text><text fill="#eeeeee" stroke="none" font-family="Arial" font-size="24px" font-style="normal" font-weight="normal" text-decoration="none" x="0" y="240">UNREGISTERED</text><text fill="#eeeeee" stroke="none" font-family="Arial" font-size="24px" font-style="normal" font-weight="normal" text-decoration="none" x="0" y="270">UNREGISTERED</text><text fill="#eeeeee" stroke="none" font-family="Arial" font-size="24px" font-style="normal" font-weight="normal" text-decoration="none" x="0" y="300">UNREGISTERED</text><text fill="#eeeeee" stroke="none" font-family="Arial" font-size="24px" font-style="normal" font-weight="normal" text-decoration="none" x="0" y="330">UNREGISTERED</text><text fill="#eeeeee" stroke="none" font-family="Arial" font-size="24px" font-style="normal" font-weight="normal" text-decoration="none" x="0" y="360">UNREGISTERED</text><text fill="#eeeeee" stroke="none" font-family="Arial" font-size="24px" font-style="normal" font-weight="normal" text-decoration="none" x="0" y="390">UNREGISTERED</text><text fill="#eeeeee" stroke="none" font-family="Arial" font-size="24px" font-style="normal" font-weight="normal" text-decoration="none" x="0" y="420">UNREGISTERED</text><text fill="#eeeeee" stroke="none" font-family="Arial" font-size="24px" font-style="normal" font-weight="normal" text-decoration="none" x="0" y="450">UNREGISTERED</text><text fill="#eeeeee" stroke="none" font-family="Arial" font-size="24px" font-style="normal" font-weight="normal" text-decoration="none" x="0" y="480">UNREGISTERED</text><text fill="#eeeeee" stroke="none" font-family="Arial" font-size="24px" font-style="normal" font-weight="normal" text-decoration="none" x="0" y="510">UNREGISTERED</text><text fill="#eeeeee" stroke="none" font-family="Arial" font-size="24px" font-style="normal" font-weight="normal" text-decoration="none" x="200" y="0">UNREGISTERED</text><text fill="#eeeeee" stroke="none" font-family="Arial" font-size="24px" font-style="normal" font-weight="normal" text-decoration="none" x="200" y="30">UNREGISTERED</text><text fill="#eeeeee" stroke="none" font-family="Arial" font-size="24px" font-style="normal" font-weight="normal" text-decoration="none" x="200" y="60">UNREGISTERED</text><text fill="#eeeeee" stroke="none" font-family="Arial" font-size="24px" font-style="normal" font-weight="normal" text-decoration="none" x="200" y="90">UNREGISTERED</text><text fill="#eeeeee" stroke="none" font-family="Arial" font-size="24px" font-style="normal" font-weight="normal" text-decoration="none" x="200" y="120">UNREGISTERED</text><text fill="#eeeeee" stroke="none" font-family="Arial" font-size="24px" font-style="normal" font-weight="normal" text-decoration="none" x="200" y="150">UNREGISTERED</text><text fill="#eeeeee" stroke="none" font-family="Arial" font-size="24px" font-style="normal" font-weight="normal" text-decoration="none" x="200" y="180">UNREGISTERED</text><text fill="#eeeeee" stroke="none" font-family="Arial" font-size="24px" font-style="normal" font-weight="normal" text-decoration="none" x="200" y="210">UNREGISTERED</text><text fill="#eeeeee" stroke="none" font-family="Arial" font-size="24px" font-style="normal" font-weight="normal" text-decoration="none" x="200" y="240">UNREGISTERED</text><text fill="#eeeeee" stroke="none" font-family="Arial" font-size="24px" font-style="normal" font-weight="normal" text-decoration="none" x="200" y="270">UNREGISTERED</text><text fill="#eeeeee" stroke="none" font-family="Arial" font-size="24px" font-style="normal" font-weight="normal" text-decoration="none" x="200" y="300">UNREGISTERED</text><text fill="#eeeeee" stroke="none" font-family="Arial" font-size="24px" font-style="normal" font-weight="normal" text-decoration="none" x="200" y="330">UNREGISTERED</text><text fill="#eeeeee" stroke="none" font-family="Arial" font-size="24px" font-style="normal" font-weight="normal" text-decoration="none" x="200" y="360">UNREGISTERED</text><text fill="#eeeeee" stroke="none" font-family="Arial" font-size="24px" font-style="normal" font-weight="normal" text-decoration="none" x="200" y="390">UNREGISTERED</text><text fill="#eeeeee" stroke="none" font-family="Arial" font-size="24px" font-style="normal" font-weight="normal" text-decoration="none" x="200" y="420">UNREGISTERED</text><text fill="#eeeeee" stroke="none" font-family="Arial" font-size="24px" font-style="normal" font-weight="normal" text-decoration="none" x="200" y="450">UNREGISTERED</text><text fill="#eeeeee" stroke="none" font-family="Arial" font-size="24px" font-style="normal" font-weight="normal" text-decoration="none" x="200" y="480">UNREGISTERED</text><text fill="#eeeeee" stroke="none" font-family="Arial" font-size="24px" font-style="normal" font-weight="normal" text-decoration="none" x="200" y="510">UNREGISTERED</text><text fill="#eeeeee" stroke="none" font-family="Arial" font-size="24px" font-style="normal" font-weight="normal" text-decoration="none" x="400" y="0">UNREGISTERED</text><text fill="#eeeeee" stroke="none" font-family="Arial" font-size="24px" font-style="normal" font-weight="normal" text-decoration="none" x="400" y="30">UNREGISTERED</text><text fill="#eeeeee" stroke="none" font-family="Arial" font-size="24px" font-style="normal" font-weight="normal" text-decoration="none" x="400" y="60">UNREGISTERED</text><text fill="#eeeeee" stroke="none" font-family="Arial" font-size="24px" font-style="normal" font-weight="normal" text-decoration="none" x="400" y="90">UNREGISTERED</text><text fill="#eeeeee" stroke="none" font-family="Arial" font-size="24px" font-style="normal" font-weight="normal" text-decoration="none" x="400" y="120">UNREGISTERED</text><text fill="#eeeeee" stroke="none" font-family="Arial" font-size="24px" font-style="normal" font-weight="normal" text-decoration="none" x="400" y="150">UNREGISTERED</text><text fill="#eeeeee" stroke="none" font-family="Arial" font-size="24px" font-style="normal" font-weight="normal" text-decoration="none" x="400" y="180">UNREGISTERED</text><text fill="#eeeeee" stroke="none" font-family="Arial" font-size="24px" font-style="normal" font-weight="normal" text-decoration="none" x="400" y="210">UNREGISTERED</text><text fill="#eeeeee" stroke="none" font-family="Arial" font-size="24px" font-style="normal" font-weight="normal" text-decoration="none" x="400" y="240">UNREGISTERED</text><text fill="#eeeeee" stroke="none" font-family="Arial" font-size="24px" font-style="normal" font-weight="normal" text-decoration="none" x="400" y="270">UNREGISTERED</text><text fill="#eeeeee" stroke="none" font-family="Arial" font-size="24px" font-style="normal" font-weight="normal" text-decoration="none" x="400" y="300">UNREGISTERED</text><text fill="#eeeeee" stroke="none" font-family="Arial" font-size="24px" font-style="normal" font-weight="normal" text-decoration="none" x="400" y="330">UNREGISTERED</text><text fill="#eeeeee" stroke="none" font-family="Arial" font-size="24px" font-style="normal" font-weight="normal" text-decoration="none" x="400" y="360">UNREGISTERED</text><text fill="#eeeeee" stroke="none" font-family="Arial" font-size="24px" font-style="normal" font-weight="normal" text-decoration="none" x="400" y="390">UNREGISTERED</text><text fill="#eeeeee" stroke="none" font-family="Arial" font-size="24px" font-style="normal" font-weight="normal" text-decoration="none" x="400" y="420">UNREGISTERED</text><text fill="#eeeeee" stroke="none" font-family="Arial" font-size="24px" font-style="normal" font-weight="normal" text-decoration="none" x="400" y="450">UNREGISTERED</text><text fill="#eeeeee" stroke="none" font-family="Arial" font-size="24px" font-style="normal" font-weight="normal" text-decoration="none" x="400" y="480">UNREGISTERED</text><text fill="#eeeeee" stroke="none" font-family="Arial" font-size="24px" font-style="normal" font-weight="normal" text-decoration="none" x="400" y="510">UNREGISTERED</text><text fill="#eeeeee" stroke="none" font-family="Arial" font-size="24px" font-style="normal" font-weight="normal" text-decoration="none" x="600" y="0">UNREGISTERED</text><text fill="#eeeeee" stroke="none" font-family="Arial" font-size="24px" font-style="normal" font-weight="normal" text-decoration="none" x="600" y="30">UNREGISTERED</text><text fill="#eeeeee" stroke="none" font-family="Arial" font-size="24px" font-style="normal" font-weight="normal" text-decoration="none" x="600" y="60">UNREGISTERED</text><text fill="#eeeeee" stroke="none" font-family="Arial" font-size="24px" font-style="normal" font-weight="normal" text-decoration="none" x="600" y="90">UNREGISTERED</text><text fill="#eeeeee" stroke="none" font-family="Arial" font-size="24px" font-style="normal" font-weight="normal" text-decoration="none" x="600" y="120">UNREGISTERED</text><text fill="#eeeeee" stroke="none" font-family="Arial" font-size="24px" font-style="normal" font-weight="normal" text-decoration="none" x="600" y="150">UNREGISTERED</text><text fill="#eeeeee" stroke="none" font-family="Arial" font-size="24px" font-style="normal" font-weight="normal" text-decoration="none" x="600" y="180">UNREGISTERED</text><text fill="#eeeeee" stroke="none" font-family="Arial" font-size="24px" font-style="normal" font-weight="normal" text-decoration="none" x="600" y="210">UNREGISTERED</text><text fill="#eeeeee" stroke="none" font-family="Arial" font-size="24px" font-style="normal" font-weight="normal" text-decoration="none" x="600" y="240">UNREGISTERED</text><text fill="#eeeeee" stroke="none" font-family="Arial" font-size="24px" font-style="normal" font-weight="normal" text-decoration="none" x="600" y="270">UNREGISTERED</text><text fill="#eeeeee" stroke="none" font-family="Arial" font-size="24px" font-style="normal" font-weight="normal" text-decoration="none" x="600" y="300">UNREGISTERED</text><text fill="#eeeeee" stroke="none" font-family="Arial" font-size="24px" font-style="normal" font-weight="normal" text-decoration="none" x="600" y="330">UNREGISTERED</text><text fill="#eeeeee" stroke="none" font-family="Arial" font-size="24px" font-style="normal" font-weight="normal" text-decoration="none" x="600" y="360">UNREGISTERED</text><text fill="#eeeeee" stroke="none" font-family="Arial" font-size="24px" font-style="normal" font-weight="normal" text-decoration="none" x="600" y="390">UNREGISTERED</text><text fill="#eeeeee" stroke="none" font-family="Arial" font-size="24px" font-style="normal" font-weight="normal" text-decoration="none" x="600" y="420">UNREGISTERED</text><text fill="#eeeeee" stroke="none" font-family="Arial" font-size="24px" font-style="normal" font-weight="normal" text-decoration="none" x="600" y="450">UNREGISTERED</text><text fill="#eeeeee" stroke="none" font-family="Arial" font-size="24px" font-style="normal" font-weight="normal" text-decoration="none" x="600" y="480">UNREGISTERED</text><text fill="#eeeeee" stroke="none" font-family="Arial" font-size="24px" font-style="normal" font-weight="normal" text-decoration="none" x="600" y="510">UNREGISTERED</text><g transform="translate(2,-14) scale(1,1)"><rect fill="#ffffff" stroke="none" x="88" y="24" width="264" height="75"/></g><g transform="translate(2,-14) scale(1,1)"><path fill="none" stroke="#000000" d="M 88 24 L 352 24 L 352 99 L 88 99 L 88 24 Z Z" stroke-miterlimit="10"/></g><g transform="translate(2,-14) scale(1,1)"><g><path fill="none" stroke="none"/><text fill="#000000" stroke="none" font-family="Arial" font-size="28px" font-style="normal" font-weight="normal" text-decoration="none" x="112.607421875" y="61.5">Does the species</text><text fill="#000000" stroke="none" font-family="Arial" font-size="28px" font-style="normal" font-weight="normal" text-decoration="none" x="157.73828125" y="89.5">eat meat?</text></g></g><g transform="translate(2,-14) scale(1,1)"><path fill="#ffffff" stroke="none" d="M 32 262.5 L 88.58447265625 248 L 145.1689453125 262.5 L 88.58447265625 277 L 32 262.5"/></g><g transform="translate(2,-14) scale(1,1)"><path fill="none" stroke="#000000" d="M 32 262.5 L 88.58447265625 248 L 145.1689453125 262.5 L 88.58447265625 277 L 32 262.5 L 32 262.5" stroke-miterlimit="10"/></g><g transform="translate(2,-14) scale(1,1)"><g><path fill="none" stroke="none"/><text fill="#000000" stroke="none" font-family="Arial" font-size="13px" font-style="normal" font-weight="normal" text-decoration="none" x="80.275390625" y="269">No</text></g></g><g transform="translate(2,-14) scale(1,1)"><path fill="none" stroke="#000000" d="M 197 99 L 197 254 M 197 254 A 8 8 0 0 1 189 262 L 145 262" stroke-miterlimit="10"/></g><g transform="translate(2,-14) scale(1,1)"><path fill="#000000" stroke="none" d="M 155.16267485762415 257.790482243984 L 145 262 L 155.16267485762415 266.209517756016"/></g><g transform="translate(2,-14) scale(1,1)"><path fill="none" stroke="#000000" d="M 155.16267485762415 257.790482243984 L 145 262 L 155.16267485762415 266.209517756016 L 155.16267485762415 257.790482243984" stroke-miterlimit="10"/></g><g transform="translate(2,-14) scale(1,1)"><path fill="#ffffff" stroke="none" d="M 336 142.5 L 392.58447265625 128 L 449.1689453125 142.5 L 392.58447265625 157 L 336 142.5"/></g><g transform="translate(2,-14) scale(1,1)"><path fill="none" stroke="#000000" d="M 336 142.5 L 392.58447265625 128 L 449.1689453125 142.5 L 392.58447265625 157 L 336 142.5 L 336 142.5" stroke-miterlimit="10"/></g><g transform="translate(2,-14) scale(1,1)"><g><path fill="none" stroke="none"/><text fill="#000000" stroke="none" font-family="Arial" font-size="13px" font-style="normal" font-weight="normal" text-decoration="none" x="381.980712890625" y="149">Yes</text></g></g><g transform="translate(2,-14) scale(1,1)"><path fill="none" stroke="#000000" d="M 238 99 L 238 134 M 238 134 A 8 8 0 0 0 246 142 L 336 142" stroke-miterlimit="10"/></g><g transform="translate(2,-14) scale(1,1)"><path fill="#000000" stroke="none" d="M 325.83732514237585 146.209517756016 L 336 142 L 325.83732514237585 137.790482243984"/></g><g transform="translate(2,-14) scale(1,1)"><path fill="none" stroke="#000000" d="M 325.83732514237585 146.209517756016 L 336 142 L 325.83732514237585 137.790482243984 L 325.83732514237585 146.209517756016" stroke-miterlimit="10"/></g><g transform="translate(2,-14) scale(1,1)"><rect fill="#ffffff" stroke="none" x="8" y="347" width="154.37890625" height="103"/></g><g transform="translate(2,-14) scale(1,1)"><path fill="none" stroke="#000000" d="M 8 347 L 162.37890625 347 L 162.37890625 450 L 8 450 L 8 347 Z Z" stroke-miterlimit="10"/></g><g transform="translate(2,-14) scale(1,1)"><g><path fill="none" stroke="none"/><text fill="#000000" stroke="none" font-family="Arial" font-size="28px" font-style="normal" font-weight="normal" text-decoration="none" x="26.044921875" y="384.5">Predicted</text><text fill="#000000" stroke="none" font-family="Arial" font-size="28px" font-style="normal" font-weight="normal" text-decoration="none" x="27.603515625" y="412.5">category:</text><text fill="#000000" stroke="none" font-family="Arial" font-size="28px" font-style="normal" font-weight="normal" text-decoration="none" x="17.5" y="440.5">Herbivores</text></g></g><g transform="translate(2,-14) scale(1,1)"><path fill="none" stroke="#000000" d="M 85 277 L 85 347" stroke-miterlimit="10"/></g><g transform="translate(2,-14) scale(1,1)"><path fill="#000000" stroke="none" d="M 80.79048224398402 336.83732514237585 L 85 347 L 89.20951775601598 336.83732514237585"/></g><g transform="translate(2,-14) scale(1,1)"><path fill="none" stroke="#000000" d="M 80.79048224398402 336.83732514237585 L 85 347 L 89.20951775601598 336.83732514237585 L 80.79048224398402 336.83732514237585" stroke-miterlimit="10"/></g><g transform="translate(2,-14) scale(1,1)"><rect fill="#ffffff" stroke="none" x="280" y="208" width="240" height="75"/></g><g transform="translate(2,-14) scale(1,1)"><path fill="none" stroke="#000000" d="M 280 208 L 520 208 L 520 283 L 280 283 L 280 208 Z Z" stroke-miterlimit="10"/></g><g transform="translate(2,-14) scale(1,1)"><g><path fill="none" stroke="none"/><text fill="#000000" stroke="none" font-family="Arial" font-size="28px" font-style="normal" font-weight="normal" text-decoration="none" x="292.607421875" y="245.5">Does the species</text><text fill="#000000" stroke="none" font-family="Arial" font-size="28px" font-style="normal" font-weight="normal" text-decoration="none" x="308.15234375" y="273.5">eat plants too?</text></g></g><g transform="translate(2,-14) scale(1,1)"><path fill="none" stroke="#000000" d="M 397 157 L 397 208" stroke-miterlimit="10"/></g><g transform="translate(2,-14) scale(1,1)"><path fill="#000000" stroke="none" d="M 392.790482243984 197.83732514237585 L 397 208 L 401.209517756016 197.83732514237585"/></g><g transform="translate(2,-14) scale(1,1)"><path fill="none" stroke="#000000" d="M 392.790482243984 197.83732514237585 L 397 208 L 401.209517756016 197.83732514237585 L 392.790482243984 197.83732514237585" stroke-miterlimit="10"/></g><g transform="translate(2,-14) scale(1,1)"><path fill="#ffffff" stroke="none" d="M 248 334.5 L 304.58447265625 320 L 361.1689453125 334.5 L 304.58447265625 349 L 248 334.5"/></g><g transform="translate(2,-14) scale(1,1)"><path fill="none" stroke="#000000" d="M 248 334.5 L 304.58447265625 320 L 361.1689453125 334.5 L 304.58447265625 349 L 248 334.5 L 248 334.5" stroke-miterlimit="10"/></g><g transform="translate(2,-14) scale(1,1)"><g><path fill="none" stroke="none"/><text fill="#000000" stroke="none" font-family="Arial" font-size="13px" font-style="normal" font-weight="normal" text-decoration="none" x="293.980712890625" y="341">Yes</text></g></g><g transform="translate(2,-14) scale(1,1)"><path fill="none" stroke="#000000" d="M 380 283 L 380 326 M 380 326 A 8 8 0 0 1 372 334 L 361 334" stroke-miterlimit="10"/></g><g transform="translate(2,-14) scale(1,1)"><path fill="#000000" stroke="none" d="M 371.16267485762415 329.790482243984 L 361 334 L 371.16267485762415 338.209517756016"/></g><g transform="translate(2,-14) scale(1,1)"><path fill="none" stroke="#000000" d="M 371.16267485762415 329.790482243984 L 361 334 L 371.16267485762415 338.209517756016 L 371.16267485762415 329.790482243984" stroke-miterlimit="10"/></g><g transform="translate(2,-14) scale(1,1)"><path fill="#ffffff" stroke="none" d="M 464 334.5 L 520.58447265625 320 L 577.1689453125 334.5 L 520.58447265625 349 L 464 334.5"/></g><g transform="translate(2,-14) scale(1,1)"><path fill="none" stroke="#000000" d="M 464 334.5 L 520.58447265625 320 L 577.1689453125 334.5 L 520.58447265625 349 L 464 334.5 L 464 334.5" stroke-miterlimit="10"/></g><g transform="translate(2,-14) scale(1,1)"><g><path fill="none" stroke="none"/><text fill="#000000" stroke="none" font-family="Arial" font-size="13px" font-style="normal" font-weight="normal" text-decoration="none" x="512.275390625" y="341">No</text></g></g><g transform="translate(2,-14) scale(1,1)"><path fill="none" stroke="#000000" d="M 418 283 L 418 326 M 418 326 A 8 8 0 0 0 426 334 L 464 334" stroke-miterlimit="10"/></g><g transform="translate(2,-14) scale(1,1)"><path fill="#000000" stroke="none" d="M 453.83732514237585 338.209517756016 L 464 334 L 453.83732514237585 329.790482243984"/></g><g transform="translate(2,-14) scale(1,1)"><path fill="none" stroke="#000000" d="M 453.83732514237585 338.209517756016 L 464 334 L 453.83732514237585 329.790482243984 L 453.83732514237585 338.209517756016" stroke-miterlimit="10"/></g><g transform="translate(2,-14) scale(1,1)"><rect fill="#ffffff" stroke="none" x="216" y="416" width="154.365234375" height="103"/></g><g transform="translate(2,-14) scale(1,1)"><path fill="none" stroke="#000000" d="M 216 416 L 370.365234375 416 L 370.365234375 519 L 216 519 L 216 416 Z Z" stroke-miterlimit="10"/></g><g transform="translate(2,-14) scale(1,1)"><g><path fill="none" stroke="none"/><text fill="#000000" stroke="none" font-family="Arial" font-size="28px" font-style="normal" font-weight="normal" text-decoration="none" x="234.0380859375" y="453.5">Predicted</text><text fill="#000000" stroke="none" font-family="Arial" font-size="28px" font-style="normal" font-weight="normal" text-decoration="none" x="235.5966796875" y="481.5">category:</text><text fill="#000000" stroke="none" font-family="Arial" font-size="28px" font-style="normal" font-weight="normal" text-decoration="none" x="225.5" y="509.5">Omnivores</text></g></g><g transform="translate(2,-14) scale(1,1)"><path fill="none" stroke="#000000" d="M 301 349 L 301 416" stroke-miterlimit="10"/></g><g transform="translate(2,-14) scale(1,1)"><path fill="#000000" stroke="none" d="M 296.790482243984 405.83732514237585 L 301 416 L 305.209517756016 405.83732514237585"/></g><g transform="translate(2,-14) scale(1,1)"><path fill="none" stroke="#000000" d="M 296.790482243984 405.83732514237585 L 301 416 L 305.209517756016 405.83732514237585 L 296.790482243984 405.83732514237585" stroke-miterlimit="10"/></g><g transform="translate(2,-14) scale(1,1)"><rect fill="#ffffff" stroke="none" x="440" y="416" width="154.37890625" height="103"/></g><g transform="translate(2,-14) scale(1,1)"><path fill="none" stroke="#000000" d="M 440 416 L 594.37890625 416 L 594.37890625 519 L 440 519 L 440 416 Z Z" stroke-miterlimit="10"/></g><g transform="translate(2,-14) scale(1,1)"><g><path fill="none" stroke="none"/><text fill="#000000" stroke="none" font-family="Arial" font-size="28px" font-style="normal" font-weight="normal" text-decoration="none" x="458.044921875" y="453.5">Predicted</text><text fill="#000000" stroke="none" font-family="Arial" font-size="28px" font-style="normal" font-weight="normal" text-decoration="none" x="459.603515625" y="481.5">category:</text><text fill="#000000" stroke="none" font-family="Arial" font-size="28px" font-style="normal" font-weight="normal" text-decoration="none" x="449.5" y="509.5">Carnivores</text></g></g><g transform="translate(2,-14) scale(1,1)"><path fill="none" stroke="#000000" d="M 517 349 L 517 416" stroke-miterlimit="10"/></g><g transform="translate(2,-14) scale(1,1)"><path fill="#000000" stroke="none" d="M 512.790482243984 405.83732514237585 L 517 416 L 521.209517756016 405.83732514237585"/></g><g transform="translate(2,-14) scale(1,1)"><path fill="none" stroke="#000000" d="M 512.790482243984 405.83732514237585 L 517 416 L 521.209517756016 405.83732514237585 L 512.790482243984 405.83732514237585" stroke-miterlimit="10"/></g></g></svg>